<svg width="462" height="100" viewBox="0 0 462 100" fill="none" xmlns="http://www.w3.org/2000/svg">
<path d="M112.188 47.4805V44.1992L131.152 36.1914V39.6875L116.113 45.8594L131.152 52.0898V55.5859L112.188 47.4805Z" fill="#073B4C"/>
<path d="M136.289 60V31.3672H140.078V56.6211H154.18V60H136.289Z" fill="#073B4C"/>
<path d="M158.281 35.4102V31.3672H161.797V35.4102H158.281ZM158.281 60V39.2578H161.797V60H158.281Z" fill="#073B4C"/>
<path d="M167.168 60V39.2578H170.332V42.207C171.855 39.9284 174.056 38.7891 176.934 38.7891C178.184 38.7891 179.329 39.0169 180.371 39.4727C181.426 39.9154 182.214 40.5013 182.734 41.2305C183.255 41.9596 183.62 42.8255 183.828 43.8281C183.958 44.4792 184.023 45.6185 184.023 47.2461V60H180.508V47.3828C180.508 45.9505 180.371 44.8828 180.098 44.1797C179.824 43.4635 179.336 42.8971 178.633 42.4805C177.943 42.0508 177.129 41.8359 176.191 41.8359C174.694 41.8359 173.398 42.3112 172.305 43.2617C171.224 44.2122 170.684 46.0156 170.684 48.6719V60H167.168Z" fill="#073B4C"/>
<path d="M189.453 60V31.3672H192.969V47.6953L201.289 39.2578H205.84L197.91 46.9531L206.641 60H202.305L195.449 49.3945L192.969 51.7773V60H189.453Z" fill="#073B4C"/>
<path d="M223.633 53.3203L227.266 53.7695C226.693 55.8919 225.632 57.5391 224.082 58.7109C222.533 59.8828 220.553 60.4688 218.145 60.4688C215.111 60.4688 212.702 59.5378 210.918 57.6758C209.147 55.8008 208.262 53.1771 208.262 49.8047C208.262 46.3151 209.16 43.6068 210.957 41.6797C212.754 39.7526 215.085 38.7891 217.949 38.7891C220.723 38.7891 222.988 39.7331 224.746 41.6211C226.504 43.5091 227.383 46.1654 227.383 49.5898C227.383 49.7982 227.376 50.1107 227.363 50.5273H211.895C212.025 52.806 212.669 54.5508 213.828 55.7617C214.987 56.9727 216.432 57.5781 218.164 57.5781C219.453 57.5781 220.553 57.2396 221.465 56.5625C222.376 55.8854 223.099 54.8047 223.633 53.3203ZM212.09 47.6367H223.672C223.516 45.8919 223.073 44.5833 222.344 43.7109C221.224 42.3568 219.772 41.6797 217.988 41.6797C216.374 41.6797 215.013 42.2201 213.906 43.3008C212.812 44.3815 212.207 45.8268 212.09 47.6367Z" fill="#073B4C"/>
<path d="M245.156 60V57.3828C243.841 59.4401 241.908 60.4688 239.355 60.4688C237.702 60.4688 236.178 60.013 234.785 59.1016C233.405 58.1901 232.331 56.9206 231.562 55.293C230.807 53.6523 230.43 51.7708 230.43 49.6484C230.43 47.5781 230.775 45.7031 231.465 44.0234C232.155 42.3307 233.19 41.0352 234.57 40.1367C235.951 39.2383 237.493 38.7891 239.199 38.7891C240.449 38.7891 241.562 39.056 242.539 39.5898C243.516 40.1107 244.31 40.7943 244.922 41.6406V31.3672H248.418V60H245.156ZM234.043 49.6484C234.043 52.3047 234.603 54.2904 235.723 55.6055C236.842 56.9206 238.164 57.5781 239.688 57.5781C241.224 57.5781 242.526 56.9531 243.594 55.7031C244.674 54.4401 245.215 52.5195 245.215 49.9414C245.215 47.1029 244.668 45.0195 243.574 43.6914C242.48 42.3633 241.133 41.6992 239.531 41.6992C237.969 41.6992 236.66 42.3372 235.605 43.6133C234.564 44.8893 234.043 46.901 234.043 49.6484Z" fill="#073B4C"/>
<path d="M265.391 60V31.3672H269.18V56.6211H283.281V60H265.391Z" fill="#073B4C"/>
<path d="M301.562 53.3203L305.195 53.7695C304.622 55.8919 303.561 57.5391 302.012 58.7109C300.462 59.8828 298.483 60.4688 296.074 60.4688C293.04 60.4688 290.632 59.5378 288.848 57.6758C287.077 55.8008 286.191 53.1771 286.191 49.8047C286.191 46.3151 287.09 43.6068 288.887 41.6797C290.684 39.7526 293.014 38.7891 295.879 38.7891C298.652 38.7891 300.918 39.7331 302.676 41.6211C304.434 43.5091 305.312 46.1654 305.312 49.5898C305.312 49.7982 305.306 50.1107 305.293 50.5273H289.824C289.954 52.806 290.599 54.5508 291.758 55.7617C292.917 56.9727 294.362 57.5781 296.094 57.5781C297.383 57.5781 298.483 57.2396 299.395 56.5625C300.306 55.8854 301.029 54.8047 301.562 53.3203ZM290.02 47.6367H301.602C301.445 45.8919 301.003 44.5833 300.273 43.7109C299.154 42.3568 297.702 41.6797 295.918 41.6797C294.303 41.6797 292.943 42.2201 291.836 43.3008C290.742 44.3815 290.137 45.8268 290.02 47.6367Z" fill="#073B4C"/>
<path d="M323.164 57.4414C321.862 58.5482 320.605 59.3294 319.395 59.7852C318.197 60.2409 316.908 60.4688 315.527 60.4688C313.249 60.4688 311.497 59.9154 310.273 58.8086C309.049 57.6888 308.438 56.263 308.438 54.5312C308.438 53.5156 308.665 52.5911 309.121 51.7578C309.59 50.9115 310.195 50.2344 310.938 49.7266C311.693 49.2188 312.539 48.8346 313.477 48.5742C314.167 48.3919 315.208 48.2161 316.602 48.0469C319.44 47.7083 321.53 47.3047 322.871 46.8359C322.884 46.3542 322.891 46.0482 322.891 45.918C322.891 44.4857 322.559 43.4766 321.895 42.8906C320.996 42.0964 319.661 41.6992 317.891 41.6992C316.237 41.6992 315.013 41.9922 314.219 42.5781C313.438 43.151 312.858 44.1732 312.48 45.6445L309.043 45.1758C309.355 43.7044 309.87 42.5195 310.586 41.6211C311.302 40.7096 312.337 40.013 313.691 39.5312C315.046 39.0365 316.615 38.7891 318.398 38.7891C320.169 38.7891 321.608 38.9974 322.715 39.4141C323.822 39.8307 324.635 40.3581 325.156 40.9961C325.677 41.6211 326.042 42.4154 326.25 43.3789C326.367 43.9779 326.426 45.0586 326.426 46.6211V51.3086C326.426 54.5768 326.497 56.6471 326.641 57.5195C326.797 58.3789 327.096 59.2057 327.539 60H323.867C323.503 59.2708 323.268 58.418 323.164 57.4414ZM322.871 49.5898C321.595 50.1107 319.681 50.5534 317.129 50.918C315.684 51.1263 314.661 51.3607 314.062 51.6211C313.464 51.8815 313.001 52.2656 312.676 52.7734C312.35 53.2682 312.188 53.8216 312.188 54.4336C312.188 55.3711 312.539 56.1523 313.242 56.7773C313.958 57.4023 315 57.7148 316.367 57.7148C317.721 57.7148 318.926 57.4219 319.98 56.8359C321.035 56.237 321.81 55.4232 322.305 54.3945C322.682 53.6003 322.871 52.4284 322.871 50.8789V49.5898Z" fill="#073B4C"/>
<path d="M331.855 60V39.2578H335.02V42.4023C335.827 40.931 336.569 39.9609 337.246 39.4922C337.936 39.0234 338.691 38.7891 339.512 38.7891C340.697 38.7891 341.901 39.1667 343.125 39.9219L341.914 43.1836C341.055 42.6758 340.195 42.4219 339.336 42.4219C338.568 42.4219 337.878 42.6562 337.266 43.125C336.654 43.5807 336.217 44.2188 335.957 45.0391C335.566 46.2891 335.371 47.6562 335.371 49.1406V60H331.855Z" fill="#073B4C"/>
<path d="M345.215 60V39.2578H348.379V42.207C349.902 39.9284 352.103 38.7891 354.98 38.7891C356.23 38.7891 357.376 39.0169 358.418 39.4727C359.473 39.9154 360.26 40.5013 360.781 41.2305C361.302 41.9596 361.667 42.8255 361.875 43.8281C362.005 44.4792 362.07 45.6185 362.07 47.2461V60H358.555V47.3828C358.555 45.9505 358.418 44.8828 358.145 44.1797C357.871 43.4635 357.383 42.8971 356.68 42.4805C355.99 42.0508 355.176 41.8359 354.238 41.8359C352.741 41.8359 351.445 42.3112 350.352 43.2617C349.271 44.2122 348.73 46.0156 348.73 48.6719V60H345.215Z" fill="#073B4C"/>
<path d="M367.5 35.4102V31.3672H371.016V35.4102H367.5ZM367.5 60V39.2578H371.016V60H367.5Z" fill="#073B4C"/>
<path d="M376.387 60V39.2578H379.551V42.207C381.074 39.9284 383.275 38.7891 386.152 38.7891C387.402 38.7891 388.548 39.0169 389.59 39.4727C390.645 39.9154 391.432 40.5013 391.953 41.2305C392.474 41.9596 392.839 42.8255 393.047 43.8281C393.177 44.4792 393.242 45.6185 393.242 47.2461V60H389.727V47.3828C389.727 45.9505 389.59 44.8828 389.316 44.1797C389.043 43.4635 388.555 42.8971 387.852 42.4805C387.161 42.0508 386.348 41.8359 385.41 41.8359C383.913 41.8359 382.617 42.3112 381.523 43.2617C380.443 44.2122 379.902 46.0156 379.902 48.6719V60H376.387Z" fill="#073B4C"/>
<path d="M398.008 61.7188L401.426 62.2266C401.569 63.2812 401.966 64.0495 402.617 64.5312C403.49 65.1823 404.681 65.5078 406.191 65.5078C407.819 65.5078 409.076 65.1823 409.961 64.5312C410.846 63.8802 411.445 62.9688 411.758 61.7969C411.94 61.0807 412.025 59.5768 412.012 57.2852C410.475 59.0951 408.561 60 406.27 60C403.418 60 401.211 58.9714 399.648 56.9141C398.086 54.8568 397.305 52.3893 397.305 49.5117C397.305 47.5326 397.663 45.7096 398.379 44.043C399.095 42.3633 400.13 41.0677 401.484 40.1562C402.852 39.2448 404.453 38.7891 406.289 38.7891C408.737 38.7891 410.755 39.7786 412.344 41.7578V39.2578H415.586V57.1875C415.586 60.4167 415.254 62.7018 414.59 64.043C413.939 65.3971 412.897 66.4648 411.465 67.2461C410.046 68.0273 408.294 68.418 406.211 68.418C403.737 68.418 401.738 67.8581 400.215 66.7383C398.691 65.6315 397.956 63.9583 398.008 61.7188ZM400.918 49.2578C400.918 51.9792 401.458 53.9648 402.539 55.2148C403.62 56.4648 404.974 57.0898 406.602 57.0898C408.216 57.0898 409.57 56.4714 410.664 55.2344C411.758 53.9844 412.305 52.0312 412.305 49.375C412.305 46.8359 411.738 44.9219 410.605 43.6328C409.486 42.3438 408.132 41.6992 406.543 41.6992C404.98 41.6992 403.652 42.3372 402.559 43.6133C401.465 44.8763 400.918 46.7578 400.918 49.2578Z" fill="#073B4C"/>
<path d="M439.434 47.4805L420.469 55.5859V52.0898L435.488 45.8594L420.469 39.6875V36.1914L439.434 44.1992V47.4805Z" fill="#073B4C"/>
<path d="M459 20H462V80H459V20Z" fill="#073B4C"/>
<path d="M20 0H40V100H20V0Z" fill="#EF476F"/>
<path d="M0 0H20V100H0V0Z" fill="#FFD166"/>
<path d="M40 0H60V100H40V0Z" fill="#118AB2"/>
<path d="M60 0H80V100H60V0Z" fill="#06D6A0"/>
</svg>
