<svg width="30" height="30" viewBox="0 0 30 30" fill="none" xmlns="http://www.w3.org/2000/svg">
<path d="M25.3674 12.4742V22.6974H28.2883V12.4742H25.3674ZM20.986 27.0788H9.30232V29.9997H20.986V27.0788ZM4.92093 22.6974V12.4742H2.00001V22.6974H4.92093ZM9.30232 27.0788C7.88421 27.0788 6.96704 27.0759 6.29231 26.9853C5.65847 26.8992 5.45984 26.7619 5.34885 26.6509L3.28375 28.716C4.02859 29.4608 4.94576 29.7515 5.90236 29.88C6.81953 30.0027 7.966 29.9997 9.30232 29.9997V27.0788ZM2.00001 22.6974C2.00001 24.0337 1.99709 25.1817 2.11976 26.0974C2.24828 27.054 2.53892 27.9726 3.28375 28.716L5.34885 26.6509C5.23785 26.5399 5.10057 26.3413 5.0144 25.7074C4.92385 25.0342 4.92093 24.1155 4.92093 22.6974H2.00001ZM25.3674 22.6974C25.3674 24.1155 25.3645 25.0327 25.2739 25.7074C25.1878 26.3413 25.0505 26.5399 24.9395 26.6509L27.0046 28.716C27.7494 27.9712 28.0401 27.054 28.1686 26.0974C28.2913 25.1802 28.2883 24.0337 28.2883 22.6974H25.3674ZM20.986 29.9997C22.3223 29.9997 23.4703 30.0027 24.386 29.88C25.3426 29.7515 26.2612 29.4608 27.0046 28.716L24.9395 26.6509C24.8285 26.7619 24.6299 26.8992 23.996 26.9853C23.3213 27.0759 22.4041 27.0788 20.986 27.0788V29.9997Z" fill="#073B4C"/>
<path d="M2 13.9349L11.014 4.92093C12.9608 2.97413 13.9349 2 15.1442 2C16.3534 2 17.3276 2.97413 19.2744 4.92093L28.2883 13.9349" stroke="#073B4C" stroke-width="2.92093" stroke-linecap="round"/>
<path d="M10.7627 22.6977C10.7627 21.3365 10.7627 20.656 10.9847 20.12C11.1315 19.7654 11.3467 19.4431 11.6181 19.1717C11.8895 18.9003 12.2117 18.6851 12.5664 18.5383C13.1024 18.3163 13.7829 18.3163 15.1441 18.3163C16.5052 18.3163 17.1858 18.3163 17.7218 18.5383C18.0764 18.6851 18.3986 18.9003 18.67 19.1717C18.9414 19.4431 19.1567 19.7654 19.3035 20.12C19.5255 20.656 19.5255 21.3365 19.5255 22.6977V28.5396H10.7627V22.6977ZM20.9859 4.44192C20.9859 3.76134 20.9859 3.42105 21.0969 3.15233C21.2455 2.79519 21.5296 2.51156 21.887 2.36368C22.1558 2.25122 22.4961 2.25122 23.1766 2.25122C23.8572 2.25122 24.1975 2.25122 24.4662 2.36222C24.8234 2.51076 25.107 2.79491 25.2549 3.15233C25.3673 3.42105 25.3673 3.76134 25.3673 4.44192V12.4745L20.9859 7.36284V4.44192Z" fill="#073B4C"/>
</svg>
