<svg width="135" height="135" viewBox="0 0 135 135" fill="none" xmlns="http://www.w3.org/2000/svg">
<circle cx="67.5931" cy="67.4826" r="64.5959" fill="white" stroke="#118AB2" stroke-width="4.78488"/>
<path d="M48.4691 57.4664L35.9261 67.4815L48.4691 77.4966C49.2993 78.1595 49.8207 79.1112 49.9186 80.1425C50.0164 81.1737 49.6827 82.2 48.9909 82.9955C48.299 83.791 47.3057 84.2906 46.2294 84.3843C45.1531 84.4781 44.082 84.1583 43.2518 83.4954L26.9523 70.4809C26.4934 70.1145 26.1242 69.6559 25.8708 69.1375C25.6174 68.6192 25.4861 68.0538 25.4861 67.4815C25.4861 66.9091 25.6174 66.3437 25.8708 65.8254C26.1242 65.307 26.4934 64.8484 26.9523 64.482L43.2518 51.4675C43.6629 51.1392 44.1374 50.8918 44.6483 50.7393C45.1592 50.5868 45.6965 50.5321 46.2294 50.5786C46.7623 50.625 47.2805 50.7715 47.7543 51.0098C48.2281 51.2481 48.6483 51.5735 48.9909 51.9674C49.3334 52.3613 49.5917 52.816 49.7509 53.3055C49.91 53.795 49.967 54.3098 49.9186 54.8204C49.8701 55.3311 49.7172 55.8275 49.4685 56.2815C49.2198 56.7355 48.8802 57.1381 48.4691 57.4664ZM108.234 64.482L91.9343 51.4675C91.5232 51.1392 91.0487 50.8918 90.5378 50.7393C90.0269 50.5868 89.4897 50.5321 88.9567 50.5786C88.4238 50.625 87.9056 50.7715 87.4318 51.0098C86.958 51.2481 86.5378 51.5735 86.1953 51.9674C85.8527 52.3613 85.5944 52.816 85.4353 53.3055C85.2761 53.795 85.2191 54.3098 85.2676 54.8204C85.316 55.3311 85.469 55.8275 85.7177 56.2815C85.9664 56.7355 86.306 57.1381 86.7171 57.4664L99.26 67.4815L86.7171 77.4966C86.306 77.8248 85.9664 78.2274 85.7177 78.6814C85.469 79.1354 85.316 79.6319 85.2676 80.1425C85.1697 81.1737 85.5034 82.2 86.1953 82.9955C86.8871 83.791 87.8804 84.2906 88.9567 84.3843C89.4897 84.4308 90.0269 84.3762 90.5378 84.2236C91.0487 84.0711 91.5232 83.8237 91.9343 83.4954L108.234 70.4809C108.693 70.1145 109.062 69.6559 109.315 69.1375C109.569 68.6192 109.7 68.0538 109.7 67.4815C109.7 66.9091 109.569 66.3437 109.315 65.8254C109.062 65.307 108.693 64.8484 108.234 64.482ZM79.852 35.1802C78.8363 34.8265 77.7156 34.8738 76.7363 35.3117C75.7571 35.7496 74.9994 36.5422 74.6299 37.5153L52.8973 94.7793C52.7141 95.2612 52.6318 95.773 52.6551 96.2854C52.6784 96.7978 52.8068 97.3008 53.033 97.7656C53.2593 98.2305 53.5789 98.648 53.9736 98.9945C54.3684 99.3409 54.8305 99.6095 55.3335 99.7847C55.8366 99.96 56.3708 100.039 56.9056 100.016C57.4403 99.9934 57.9652 99.87 58.4502 99.653C58.9352 99.436 59.3709 99.1295 59.7322 98.7511C60.0936 98.3727 60.3736 97.9298 60.5562 97.4476L82.2889 40.1836C82.4717 39.7018 82.5538 39.1902 82.5303 38.6779C82.5068 38.1657 82.3782 37.6629 82.152 37.1983C81.9257 36.7337 81.6061 36.3164 81.2115 35.9701C80.8168 35.6238 80.3549 35.3554 79.852 35.1802Z" fill="#118AB2"/>
</svg>
