<svg width="130" height="130" viewBox="0 0 130 130" fill="none" xmlns="http://www.w3.org/2000/svg">
<circle cx="65" cy="65" r="62.6076" fill="white" stroke="#06D6A0" stroke-width="4.78488"/>
<path d="M72.7689 28.8372C74.3798 28.8372 75.932 29.406 77.1572 30.4325L77.6008 30.8386L92.6826 45.9205C93.8218 47.0596 94.5172 48.5595 94.6577 50.1516L94.6841 50.7524V90.3372C94.6841 93.9397 91.8966 96.8909 88.3608 97.1518L87.8508 97.1705H46.8508C43.2484 97.1705 40.2971 94.383 40.0362 90.8472L40.0175 90.3372V35.6705C40.0175 32.0681 42.805 29.1168 46.3408 28.8559L46.8508 28.8372H72.7689ZM67.3508 35.6705H46.8508V90.3372H87.8508V56.1705H72.4758C69.6454 56.1705 67.3508 53.876 67.3508 51.0455V35.6705ZM67.3508 61.2955C69.2378 61.2955 70.7675 62.8252 70.7675 64.7122V69.8372H75.8925C77.7795 69.8372 79.3091 71.3668 79.3091 73.2539C79.3091 75.1409 77.7795 76.6705 75.8925 76.6705H70.7675V81.7955C70.7675 83.6825 69.2378 85.2122 67.3508 85.2122C65.4638 85.2122 63.9341 83.6825 63.9341 81.7955V76.6705H58.8091C56.9222 76.6705 55.3925 75.1409 55.3925 73.2539C55.3925 71.3668 56.9222 69.8372 58.8091 69.8372H63.9341V64.7122C63.9341 62.8252 65.4638 61.2955 67.3508 61.2955ZM74.1841 37.0857V49.3372H86.4356L74.1841 37.0857Z" fill="#06D6A0"/>
</svg>
