<svg width="135" height="135" viewBox="0 0 135 135" fill="none" xmlns="http://www.w3.org/2000/svg">
<circle cx="67.5" cy="67.4826" r="64.5959" fill="white" stroke="#EF476F" stroke-width="4.78488"/>
<path d="M88.0819 98.559C87.4953 98.5613 86.9166 98.4274 86.3945 98.1687L67.6856 88.6934L48.9767 98.1687C48.3692 98.4777 47.6842 98.6157 46.9997 98.5668C46.3152 98.518 45.6585 98.2844 45.1044 97.8926C44.5503 97.5007 44.121 96.9663 43.8652 96.3501C43.6094 95.7339 43.5374 95.0607 43.6575 94.4069L47.3259 74.4273L32.212 60.2321C31.7405 59.7769 31.406 59.206 31.2444 58.5808C31.0828 57.9556 31.1003 57.2996 31.2949 56.6833C31.5076 56.0526 31.8987 55.4922 32.4239 55.0656C32.9491 54.6391 33.5874 54.3635 34.2664 54.2701L55.1763 51.3246L64.384 33.1194C64.6844 32.5194 65.1534 32.0133 65.7373 31.6593C66.3212 31.3052 66.9964 31.1174 67.6856 31.1174C68.3747 31.1174 69.0499 31.3052 69.6338 31.6593C70.2177 32.0133 70.6868 32.5194 70.9871 33.1194L80.3049 51.2892L101.215 54.2347C101.894 54.328 102.532 54.6036 103.057 55.0301C103.583 55.4567 103.974 56.0171 104.186 56.6478C104.381 57.2642 104.398 57.9201 104.237 58.5453C104.075 59.1705 103.741 59.7414 103.269 60.1966L88.1553 74.3918L91.8237 94.3715C91.9547 95.0368 91.8861 95.7244 91.6261 96.3533C91.3661 96.9821 90.9255 97.5258 90.3564 97.9202C89.6921 98.3706 88.8922 98.5952 88.0819 98.559ZM67.6856 81.17C68.2736 81.1556 68.8553 81.2902 69.373 81.5603L83.2029 88.6579L80.5617 73.7175C80.4592 73.147 80.5026 72.561 80.688 72.0104C80.8734 71.4599 81.1953 70.9616 81.6255 70.5591L92.6308 60.1611L77.2234 57.9609C76.6584 57.8508 76.1282 57.6136 75.6757 57.2683C75.2232 56.923 74.8611 56.4795 74.6189 55.9736L67.6856 42.6656L60.7523 55.9736C60.4869 56.4835 60.0982 56.924 59.6192 57.2576C59.1402 57.5913 58.5851 57.8082 58.001 57.8899L42.5936 60.0902L53.5989 70.4881C54.0291 70.8907 54.351 71.3889 54.5364 71.9395C54.7218 72.49 54.7652 73.0761 54.6627 73.6465L52.0215 88.4095L65.8514 81.3119C66.4374 81.1012 67.0724 81.052 67.6856 81.17Z" fill="#EF476F"/>
</svg>
