<svg width="135" height="135" viewBox="0 0 135 135" fill="none" xmlns="http://www.w3.org/2000/svg">
<circle cx="67.407" cy="67.4826" r="64.5959" fill="white" stroke="#FFD166" stroke-width="4.78488"/>
<path d="M62.5847 48.7543L52.2478 31.5272C51.8228 30.8185 51.2215 30.232 50.5025 29.8248C49.7834 29.4175 48.9711 29.2035 48.1448 29.2035H31.5248C29.5884 29.2035 28.4549 31.3821 29.5644 32.9686L46.2024 56.7376C50.6464 52.5852 56.2986 49.7352 62.5847 48.7543ZM103.289 29.2035H86.6692C84.9885 29.2035 83.4304 30.0857 82.5662 31.5272L72.2293 48.7543C78.5154 49.7352 84.1676 52.5852 88.6116 56.7361L105.25 32.9686C106.359 31.3821 105.226 29.2035 103.289 29.2035ZM67.407 53.128C52.8729 53.128 41.0901 64.9108 41.0901 79.4449C41.0901 93.979 52.8729 105.762 67.407 105.762C81.9411 105.762 93.7239 93.979 93.7239 79.4449C93.7239 64.9108 81.9411 53.128 67.407 53.128ZM81.2413 76.6428L75.5697 82.1693L76.911 89.9777C77.1502 91.3773 75.6759 92.4464 74.4214 91.7855L67.407 88.0996L60.3941 91.7855C59.1381 92.4509 57.6652 91.3758 57.9045 89.9777L59.2458 82.1693L53.5742 76.6428C52.5544 75.6499 53.1181 73.9169 54.5237 73.7135L62.3634 72.5711L65.8669 65.4655C66.1824 64.8256 66.7924 64.5101 67.404 64.5101C68.0186 64.5101 68.6331 64.83 68.9486 65.4655L72.4521 72.5711L80.2918 73.7135C81.6974 73.9169 82.2611 75.6499 81.2413 76.6428Z" fill="#FFD166"/>
</svg>
